<svg width="30.000000" height="61.000000" viewBox="0 0 30 61" fill="none" xmlns="http://www.w3.org/2000/svg" xmlns:xlink="http://www.w3.org/1999/xlink">
	<desc>
			Created with Pixso.
	</desc>
	<defs/>
	<path id="Vector" d="M0.89 6.44L21.72 30.41L0.89 54.55C-1.97 57.76 2.66 63.23 5.52 60.02L29.21 32.67C30.16 31.54 30.3 29.45 29.34 28.32L5.52 0.97C2.66 -2.24 -1.97 3.23 0.89 6.44Z" fill="#FFFFFF" fill-opacity="1.000000" fill-rule="evenodd"/>
	<path id="Vector" d="M21.72 30.41L0.89 6.44C-1.97 3.23 2.66 -2.24 5.52 0.97L29.34 28.32C30.3 29.45 30.16 31.54 29.21 32.67L5.52 60.02C2.66 63.23 -1.97 57.76 0.89 54.55L21.72 30.41ZM1.65 55.2L22.48 31.07L23.04 30.41L1.64 5.78Q0.98 5.04 0.91 4.25Q0.81 3.15 1.83 1.94Q2.5 1.14 3.29 1.02Q3.31 1.01 3.33 1.01Q3.55 0.98 3.75 1.01Q4.3 1.1 4.77 1.63L28.58 28.97Q29.12 29.61 29.16 30.27Q29.21 31.12 28.45 32.01L4.77 59.35Q4.29 59.89 3.74 59.98Q3.54 60.01 3.33 59.98Q3.31 59.98 3.29 59.97Q2.5 59.85 1.83 59.05Q0.81 57.85 0.91 56.75Q0.98 55.95 1.65 55.2Z" fill="#212121" fill-opacity="1.000000" fill-rule="evenodd"/>
</svg>
