<svg width="35.000000" height="35.000000" viewBox="0 0 35 35" fill="none" xmlns="http://www.w3.org/2000/svg" xmlns:xlink="http://www.w3.org/1999/xlink">
	<desc>
			Created with Pixso.
	</desc>
	<defs/>
	<path id="Vector" d="M30.96 0L4.03 0C1.81 0 0 1.81 0 4.03L0 30.96C0 33.18 1.81 35 4.03 35L30.96 35C33.18 35 35 33.18 35 30.96L35 4.03C35 1.81 33.18 0 30.96 0ZM25.18 23.27C25.71 23.79 25.71 24.66 25.18 25.18C24.91 25.44 24.56 25.57 24.23 25.57C23.88 25.57 23.54 25.44 23.27 25.18L17.5 19.39L11.72 25.18C11.45 25.44 11.11 25.57 10.76 25.57C10.41 25.57 10.08 25.44 9.81 25.18C9.28 24.66 9.28 23.79 9.81 23.27L15.6 17.5L9.81 11.72C9.28 11.2 9.28 10.33 9.81 9.81C10.33 9.28 11.19 9.28 11.72 9.81L17.5 15.6L23.27 9.81C23.8 9.28 24.66 9.28 25.18 9.81C25.71 10.33 25.71 11.2 25.18 11.72L19.39 17.5L25.18 23.27Z" fill="#FFFFFF" fill-opacity="1.000000" fill-rule="nonzero"/>
</svg>
