<svg width="184.000000" height="154.000000" viewBox="0 0 184 154" fill="none" xmlns="http://www.w3.org/2000/svg" xmlns:xlink="http://www.w3.org/1999/xlink">
	<desc>
			Created with Pixso.
	</desc>
	<defs/>
	<g opacity="0.700000">
		<path id="Ellipse 10" d="M141.58 90.59Q136.38 115.28 116.04 130.21Q95.69 145.13 70.58 142.68Q45.47 140.23 28.4 121.66Q11.33 103.08 11 77.85Q10.67 52.62 27.26 33.61Q43.84 14.6 68.88 11.5Q93.92 8.39 114.64 22.78Q135.36 37.18 141.2 61.72L139.26 62.18Q133.6 38.38 113.5 24.43Q93.41 10.47 69.12 13.48Q44.85 16.49 28.76 34.92Q12.68 53.36 13 77.83Q13.32 102.29 29.87 120.3Q46.43 138.32 70.78 140.69Q95.13 143.07 114.85 128.6Q134.58 114.12 139.62 90.18L141.58 90.59Z" fill="#FFFFFF" fill-opacity="1.000000" fill-rule="evenodd"/>
		<path id="Arrow 1" d="M173.24 78L54.99 78L54.99 76L173.24 76L177.99 71.25L183.74 77L177.99 82.75L173.24 78Z" fill="#FFFFFF" fill-opacity="1.000000" fill-rule="evenodd"/>
	</g>
</svg>
