<svg width="35.000000" height="34.998047" viewBox="0 0 35 34.998" fill="none" xmlns="http://www.w3.org/2000/svg" xmlns:xlink="http://www.w3.org/1999/xlink">
	<desc>
			Created with Pixso.
	</desc>
	<defs/>
	<path id="Exclude" d="M3.38672 34.998L31.6133 34.998C33.4756 34.998 35 33.3545 35 31.3457L35 3.65137C35 1.64258 33.4756 0 31.6133 0L3.38672 0C1.52441 0 0 1.64258 0 3.65137L0 31.3457C0 33.3545 1.52441 34.998 3.38672 34.998ZM12.4121 4.72656C13.7568 4.66602 14.1865 4.65137 17.6113 4.65137C21.0371 4.65137 21.4668 4.66602 22.8115 4.72656C24.1543 4.78809 25.0713 5.00195 25.873 5.31348C26.7021 5.63574 27.4062 6.06738 28.1074 6.76855C28.8086 7.46875 29.2393 8.17285 29.5615 9.00195C29.874 9.80469 30.0869 10.7207 30.1475 12.0635C30.209 13.4082 30.2236 13.8379 30.2236 17.2627C30.2236 20.6885 30.209 21.1182 30.1475 22.4629C30.0869 23.8057 29.874 24.7217 29.5615 25.5244C29.2393 26.3535 28.8086 27.0566 28.1074 27.7588C27.4062 28.46 26.7021 28.8906 25.873 29.2129C25.0713 29.5244 24.1543 29.7383 22.8115 29.7998C21.4668 29.8604 21.0371 29.875 17.6113 29.875C14.1865 29.875 13.7568 29.8604 12.4121 29.7998C11.0693 29.7383 10.1523 29.5244 9.35059 29.2129C8.52148 28.8906 7.81738 28.46 7.11621 27.7588C6.41504 27.0566 5.98438 26.3535 5.66211 25.5244C5.35059 24.7217 5.13672 23.8057 5.07617 22.4629C5.01465 21.1182 5 20.6885 5 17.2627C5 13.8379 5.01465 13.4082 5.07617 12.0635C5.13672 10.7207 5.35059 9.80469 5.66211 9.00195C5.98438 8.17285 6.41504 7.46875 7.11621 6.76855C7.81738 6.06738 8.52148 5.63574 9.35059 5.31348C10.1523 5.00195 11.0693 4.78809 12.4121 4.72656ZM22.708 6.99707C21.3779 6.93652 20.9795 6.92383 17.6113 6.92383C14.2441 6.92383 13.8447 6.93652 12.5156 6.99707C11.2861 7.05371 10.6182 7.25879 10.1738 7.43164C9.58496 7.66016 9.16504 7.93359 8.72363 8.375C8.28223 8.81641 8.00879 9.23633 7.78027 9.8252C7.60742 10.2695 7.40234 10.9365 7.3457 12.167C7.28516 13.4971 7.27246 13.8955 7.27246 17.2627C7.27246 20.6309 7.28516 21.0293 7.3457 22.3594C7.40234 23.5898 7.60742 24.2568 7.78027 24.7012C8.00879 25.29 8.28223 25.71 8.72363 26.1514C9.16504 26.5928 9.58496 26.8662 10.1738 27.0947C10.6182 27.2676 11.2861 27.4736 12.5156 27.5293C13.8447 27.5898 14.2432 27.6025 17.6113 27.6025C20.9795 27.6025 21.3779 27.5898 22.708 27.5293C23.9375 27.4736 24.6055 27.2676 25.0498 27.0947C25.6387 26.8662 26.0586 26.5928 26.5 26.1514C26.9424 25.71 27.2148 25.29 27.4434 24.7012C27.6162 24.2568 27.8213 23.5898 27.8779 22.3594C27.9385 21.0293 27.9512 20.6309 27.9512 17.2627C27.9512 13.8955 27.9385 13.4971 27.8779 12.167C27.8213 10.9365 27.6162 10.2695 27.4434 9.8252C27.2148 9.23633 26.9424 8.81641 26.5 8.375C26.0586 7.93359 25.6387 7.66016 25.0498 7.43164C24.6055 7.25879 23.9375 7.05371 22.708 6.99707ZM17.6133 10.7881C14.0361 10.7881 11.1367 13.6875 11.1367 17.2637C11.1367 20.8408 14.0361 23.7402 17.6133 23.7402C21.1895 23.7402 24.0898 20.8408 24.0898 17.2637C24.0898 13.6875 21.1895 10.7881 17.6133 10.7881ZM17.6133 21.4678C15.291 21.4678 13.4092 19.5859 13.4092 17.2637C13.4092 14.9424 15.291 13.0596 17.6133 13.0596C19.9346 13.0596 21.8174 14.9424 21.8174 17.2637C21.8174 19.5859 19.9346 21.4678 17.6133 21.4678ZM24.3457 12.0449C25.1816 12.0449 25.8594 11.3662 25.8594 10.5312C25.8594 9.69531 25.1816 9.01758 24.3457 9.01758C23.5098 9.01758 22.832 9.69531 22.832 10.5312C22.832 11.3662 23.5098 12.0449 24.3457 12.0449Z" clip-rule="evenodd" fill="#FFFFFF" fill-opacity="0.700000" fill-rule="evenodd"/>
</svg>
