<svg width="35.000000" height="35.000000" viewBox="0 0 35 35" fill="none" xmlns="http://www.w3.org/2000/svg" xmlns:xlink="http://www.w3.org/1999/xlink">
	<desc>
			Created with Pixso.
	</desc>
	<defs/>
	<path id="inst" d="M3.38672 34.9985L31.6133 34.9985C33.4756 34.9985 35 33.3552 35 31.3466L35 3.65198C35 1.64331 33.4756 0 31.6133 0L3.38672 0C1.52441 0 0 1.64331 0 3.65198L0 31.3466C0 33.3552 1.52441 34.9985 3.38672 34.9985ZM12.4121 4.72729C13.7568 4.66614 14.1865 4.65137 17.6113 4.65137C21.0371 4.65137 21.4668 4.66614 22.8115 4.72729C24.1543 4.78845 25.0713 5.00195 25.873 5.31348C26.7021 5.63586 27.4062 6.06726 28.1074 6.76843C28.8086 7.46924 29.2393 8.17285 29.5615 9.0022C29.874 9.80469 30.0869 10.7213 30.1475 12.0637C30.209 13.4088 30.2236 13.8383 30.2236 17.2633C30.2236 20.6888 30.209 21.1183 30.1475 22.4635C30.0869 23.8058 29.874 24.7225 29.5615 25.525C29.2393 26.3542 28.8086 27.0575 28.1074 27.7592C27.4062 28.46 26.7021 28.8912 25.873 29.2133C25.0713 29.5251 24.1543 29.7388 22.8115 29.7998C21.4668 29.861 21.0371 29.8754 17.6113 29.8754C14.1865 29.8754 13.7568 29.861 12.4121 29.7998C11.0693 29.7388 10.1523 29.5251 9.35059 29.2133C8.52148 28.8912 7.81738 28.46 7.11621 27.7592C6.41504 27.0575 5.98438 26.3542 5.66211 25.525C5.35059 24.7225 5.13672 23.8058 5.07617 22.4635C5.01465 21.1183 5 20.6888 5 17.2633C5 13.8383 5.01465 13.4088 5.07617 12.0637C5.13672 10.7213 5.35059 9.80469 5.66211 9.0022C5.98438 8.17285 6.41504 7.46924 7.11621 6.76843C7.81738 6.06726 8.52148 5.63586 9.35059 5.31348C10.1523 5.00195 11.0693 4.78845 12.4121 4.72729ZM22.708 6.99731C21.3779 6.93665 20.9795 6.92371 17.6113 6.92371C14.2441 6.92371 13.8447 6.93665 12.5156 6.99731C11.2861 7.05371 10.6182 7.25903 10.1738 7.43201C9.58496 7.66077 9.16504 7.93408 8.72363 8.375C8.28223 8.81677 8.00879 9.23669 7.78027 9.8252C7.60742 10.27 7.40234 10.9373 7.3457 12.1674C7.28516 13.4972 7.27246 13.8961 7.27246 17.2633C7.27246 20.6316 7.28516 21.0299 7.3457 22.3599C7.40234 23.5898 7.60742 24.2572 7.78027 24.7014C8.00879 25.2904 8.28223 25.7103 8.72363 26.1517C9.16504 26.5931 9.58496 26.8663 10.1738 27.0952C10.6182 27.2681 11.2861 27.4735 12.5156 27.5299C13.8447 27.5901 14.2432 27.6029 17.6113 27.6029C20.9795 27.6029 21.3779 27.5901 22.708 27.5299C23.9375 27.4735 24.6055 27.2681 25.0498 27.0952C25.6387 26.8663 26.0586 26.5931 26.5 26.1517C26.9424 25.7103 27.2148 25.2904 27.4434 24.7014C27.6162 24.2572 27.8213 23.5898 27.8779 22.3599C27.9385 21.0299 27.9512 20.6316 27.9512 17.2633C27.9512 13.8961 27.9385 13.4972 27.8779 12.1674C27.8213 10.9373 27.6162 10.27 27.4434 9.8252C27.2148 9.23669 26.9424 8.81677 26.5 8.375C26.0586 7.93408 25.6387 7.66077 25.0498 7.43201C24.6055 7.25903 23.9375 7.05371 22.708 6.99731ZM17.6133 10.7874C14.0361 10.7874 11.1367 13.6869 11.1367 17.2634C11.1367 20.8403 14.0361 23.74 17.6133 23.74C21.1895 23.74 24.0898 20.8403 24.0898 17.2634C24.0898 13.6869 21.1895 10.7874 17.6133 10.7874ZM17.6133 21.4675C15.291 21.4675 13.4092 19.5854 13.4092 17.2634C13.4092 14.9418 15.291 13.0597 17.6133 13.0597C19.9346 13.0597 21.8174 14.9418 21.8174 17.2634C21.8174 19.5854 19.9346 21.4675 17.6133 21.4675ZM24.3457 12.045C25.1816 12.045 25.8594 11.3667 25.8594 10.5312C25.8594 9.69531 25.1816 9.01794 24.3457 9.01794C23.5098 9.01794 22.832 9.69531 22.832 10.5312C22.832 11.3667 23.5098 12.045 24.3457 12.045Z" clip-rule="evenodd" fill="#000000" fill-opacity="1.000000" fill-rule="evenodd"/>
</svg>
