<svg width="35.000000" height="35.000000" viewBox="0 0 35 35" fill="none" xmlns="http://www.w3.org/2000/svg" xmlns:xlink="http://www.w3.org/1999/xlink">
	<desc>
			Created with Pixso.
	</desc>
	<defs/>
	<path id="path112" d="M31.61 34.99L3.38 34.99C1.52 34.99 0 33.35 0 31.34L0 3.65C0 1.64 1.52 0 3.38 0L31.61 0C33.47 0 35 1.64 35 3.65L35 31.34C35 33.35 33.47 34.99 31.61 34.99Z" fill="#1A1A1A" fill-opacity="1.000000" fill-rule="nonzero"/>
	<path id="Vector (Stroke)" d="M12.13 8.02C12.04 7.94 11.93 7.89 11.81 7.89C11.69 7.89 11.58 7.94 11.5 8.02L9.81 9.71C9.05 10.47 8.73 11.56 8.97 12.61C9.44 14.61 10.68 17.84 13.92 21.07C17.15 24.31 20.38 25.55 22.38 26.02C23.43 26.26 24.52 25.94 25.28 25.18L25.28 25.18C25.75 24.71 26.28 24.18 26.71 23.75C26.8 23.66 26.89 23.58 26.97 23.5C27.05 23.41 27.1 23.3 27.1 23.18C27.1 23.06 27.05 22.95 26.97 22.86L23.76 19.66C23.59 19.48 23.3 19.48 23.13 19.66L21.12 21.66C20.69 22.1 20.01 22.18 19.48 21.87C19.48 21.86 19.48 21.86 19.47 21.86C18.72 21.38 17.38 20.43 15.97 19.02C14.56 17.61 13.61 16.27 13.14 15.52C13.13 15.51 13.13 15.51 13.13 15.51C12.81 14.98 12.9 14.31 13.33 13.87C13.87 13.33 14.74 12.46 15.34 11.86C15.51 11.69 15.51 11.4 15.34 11.23L12.13 8.02ZM14.95 11.55L11.81 8.41L10.16 10.06C9.52 10.7 9.26 11.62 9.45 12.5C9.91 14.42 11.12 17.57 14.27 20.72C17.43 23.88 20.57 25.08 22.5 25.54C23.37 25.73 24.29 25.47 24.93 24.83L24.93 24.83C25.4 24.36 25.93 23.83 26.36 23.4C26.44 23.32 26.51 23.25 26.58 23.18L23.44 20.05L21.47 22.02C20.88 22.61 19.95 22.73 19.23 22.3L19.22 22.29C19.21 22.29 19.21 22.28 19.2 22.28C18.43 21.78 17.06 20.82 15.62 19.38C14.18 17.94 13.21 16.56 12.72 15.79L12.71 15.79L12.7 15.76C12.27 15.04 12.38 14.12 12.98 13.52C13.51 12.99 14.36 12.14 14.95 11.55ZM19.23 22.3C19.23 22.3 19.23 22.29 19.22 22.29L19.23 22.3ZM22.19 26.9C22.18 26.9 22.18 26.9 22.18 26.9C20.08 26.4 16.68 25.1 13.29 21.71C9.89 18.31 8.59 14.91 8.09 12.81L8.09 12.81C7.79 11.46 8.2 10.05 9.17 9.08L10.86 7.39C11.11 7.14 11.46 7 11.81 7C12.17 7 12.51 7.14 12.76 7.39L15.97 10.6C16.49 11.12 16.49 11.97 15.97 12.5C15.38 13.09 14.51 13.96 13.97 14.5L13.96 14.51C13.82 14.65 13.79 14.87 13.9 15.04C14.36 15.76 15.26 17.04 16.6 18.39C17.95 19.74 19.23 20.64 19.95 21.1C20.13 21.2 20.35 21.17 20.49 21.03L22.5 19.02C23.02 18.5 23.87 18.5 24.39 19.02L27.6 22.23C27.85 22.48 28 22.83 28 23.18C28 23.54 27.85 23.88 27.6 24.13C27.13 24.6 26.48 25.25 25.91 25.82C24.94 26.79 23.53 27.2 22.19 26.9ZM26.26 26.17C25.17 27.26 23.6 27.72 22.09 27.39C22.08 27.39 22.07 27.38 22.06 27.38C19.89 26.87 16.4 25.53 12.93 22.06C9.46 18.59 8.13 15.1 7.61 12.93L7.61 12.92L7.61 12.92C7.27 11.4 7.72 9.82 8.82 8.72L10.51 7.04C10.85 6.69 11.32 6.5 11.81 6.5C12.3 6.5 12.77 6.69 13.11 7.03L16.32 10.24C17.04 10.96 17.04 12.13 16.32 12.85C15.74 13.43 14.9 14.28 14.35 14.82L14.35 14.82L14.35 14.83C14.81 15.53 15.67 16.76 16.96 18.04C18.23 19.31 19.45 20.18 20.17 20.65L22.14 18.67C22.86 17.95 24.03 17.95 24.75 18.67L27.96 21.88C28.3 22.22 28.5 22.69 28.5 23.18C28.5 23.67 28.3 24.14 27.96 24.48C27.49 24.95 26.84 25.6 26.26 26.17ZM14.32 14.86C14.32 14.86 14.32 14.86 14.32 14.86L14.32 14.86ZM14.32 14.86C14.32 14.85 14.33 14.85 14.33 14.84C14.34 14.84 14.34 14.83 14.35 14.83C14.35 14.83 14.35 14.83 14.35 14.83L14.32 14.86ZM22.12 27.39C22.12 27.39 22.12 27.39 22.11 27.39L22.12 27.39Z" fill="#FFFFFF" fill-opacity="1.000000" fill-rule="evenodd"/>
	<path id="Vector" d="M12.76 7.39C12.51 7.14 12.17 7 11.81 7C11.46 7 11.11 7.14 10.86 7.39L9.17 9.08C8.2 10.05 7.79 11.46 8.09 12.81C8.09 12.81 8.09 12.81 8.09 12.81C8.59 14.91 9.89 18.31 13.29 21.71C16.68 25.1 20.08 26.4 22.18 26.9C22.18 26.9 22.18 26.9 22.19 26.9C23.53 27.2 24.94 26.79 25.91 25.82C26.48 25.25 27.13 24.6 27.6 24.13C27.85 23.88 28 23.54 28 23.18C28 22.83 27.85 22.48 27.6 22.23C26.75 21.38 25.24 19.87 24.39 19.02C23.87 18.5 23.02 18.5 22.5 19.02L20.49 21.03C20.35 21.17 20.13 21.2 19.95 21.1C19.23 20.64 17.95 19.74 16.6 18.39C15.26 17.04 14.35 15.76 13.9 15.04C13.79 14.87 13.82 14.65 13.96 14.51C13.96 14.5 13.97 14.5 13.97 14.5C14.51 13.96 15.38 13.09 15.97 12.5C16.49 11.97 16.49 11.12 15.97 10.6L12.76 7.39ZM12.13 8.02L15.34 11.23C15.51 11.4 15.51 11.69 15.34 11.86C14.74 12.46 13.87 13.33 13.33 13.87C12.9 14.31 12.81 14.98 13.13 15.51C13.13 15.51 13.13 15.51 13.14 15.52C13.61 16.27 14.56 17.61 15.97 19.02C17.38 20.43 18.72 21.38 19.47 21.86C19.48 21.86 19.48 21.86 19.48 21.87C20.01 22.18 20.69 22.1 21.12 21.66L23.13 19.66C23.3 19.48 23.59 19.48 23.76 19.66L26.97 22.86C27.05 22.95 27.1 23.06 27.1 23.18C27.1 23.3 27.05 23.41 26.97 23.5C26.5 23.96 25.85 24.61 25.28 25.18C25.28 25.18 25.28 25.18 25.28 25.18C24.52 25.94 23.43 26.26 22.38 26.02C20.38 25.55 17.15 24.31 13.92 21.07C10.68 17.84 9.44 14.61 8.97 12.61C8.73 11.56 9.05 10.47 9.81 9.71L11.5 8.02C11.58 7.94 11.69 7.89 11.81 7.89C11.93 7.89 12.04 7.94 12.13 8.02L12.13 8.02Z" fill="#FFFFFF" fill-opacity="1.000000" fill-rule="evenodd"/>
</svg>
