<svg width="35.000000" height="35.000000" viewBox="0 0 35 35" fill="none" xmlns="http://www.w3.org/2000/svg" xmlns:xlink="http://www.w3.org/1999/xlink">
	<desc>
			Created with Pixso.
	</desc>
	<defs/>
	<path id="Exclude" d="M3.3877 35L31.6123 35C33.4756 35 35 33.3564 35 31.3477L35 3.65234C35 1.64355 33.4756 0 31.6123 0L3.3877 0C1.52441 0 0 1.64355 0 3.65234L0 31.3477C0 33.3564 1.52441 35 3.3877 35ZM4.49316 16.3555L28.2754 7.08789C29.1816 6.73535 30.1162 7.52734 29.918 8.47754L25.8574 27.8906C25.667 28.8018 24.5977 29.2109 23.8477 28.6602L17.7168 24.1602L14.5928 27.3506C14.0439 27.9111 13.0967 27.6836 12.8613 26.9365L10.6055 19.7793L4.5625 17.9951C3.76855 17.7617 3.72266 16.6553 4.49316 16.3555ZM14.2471 21.165L25.293 11.3965C25.5586 11.1611 25.251 10.749 24.9502 10.9346L11.9062 19.0264C11.6758 19.168 11.5723 19.4482 11.6514 19.7061L13.4023 25.3447C13.4395 25.4639 13.6113 25.4473 13.625 25.3232L14.0508 21.543C14.0664 21.3965 14.1367 21.2617 14.2471 21.165Z" clip-rule="evenodd" fill="#FFFFFF" fill-opacity="0.700000" fill-rule="evenodd"/>
</svg>
