<svg width="30" height="61" fill="none" xmlns="http://www.w3.org/2000/svg"><path d="m.89 6.44 20.83 23.97L.89 54.55c-2.86 3.21 1.77 8.68 4.63 5.47l23.69-27.35c.95-1.13 1.09-3.22.13-4.35L5.52.97C2.66-2.24-1.97 3.23.89 6.44Z" fill="#1D1D1D" fill-rule="evenodd"/><path d="M21.72 30.41.89 6.44C-1.97 3.23 2.66-2.24 5.52.97l23.82 27.35c.96 1.13.82 3.22-.13 4.35L5.52 60.02c-2.86 3.21-7.49-2.26-4.63-5.47l20.83-24.14ZM1.65 55.2l20.83-24.13.56-.66L1.64 5.78Q.98 5.04.91 4.25q-.1-1.1.92-2.31.67-.8 1.46-.92.02-.01.04-.01.22-.03.42 0 .55.09 1.02.62l23.81 27.34q.54.64.58 1.3.05.85-.71 1.74L4.77 59.35q-.48.54-1.03.63-.2.03-.41 0-.02 0-.04-.01-.79-.12-1.46-.92-1.02-1.2-.92-2.3.07-.8.74-1.55Z" fill="#FFF" fill-rule="evenodd"/></svg>