<svg width="22" height="32" fill="none" xmlns="http://www.w3.org/2000/svg"><path d="M9.25 17.88c.44-.25 2.37-1.27 5.78-1.27 2.09.02 4.17.35 6.16.98v-4.67c0-.17-.07-.32-.18-.44a.647.647 0 0 0-.44-.18H-.35c-.16 0-.32.07-.44.18-.11.12-.18.27-.18.44v6.77a10.13 10.13 0 0 1 6.77-2.46 8.31 8.31 0 0 1 3.45.65ZM5.8 0c-.16 0-.32.06-.43.18-.12.11-.18.27-.18.43v10.46h10.46V.61c0-.16-.07-.32-.18-.43a.604.604 0 0 0-.44-.18H5.8Z" fill="#FFF"/><path d="M-.35 32h20.92c.17 0 .32-.07.44-.19.11-.11.18-.27.18-.43V19.69a11.07 11.07 0 0 1-6.16 1.84c-1.67.02-3.29-.53-4.61-1.56a7.13 7.13 0 0 0-4.62-1.51c-1.27-.02-2.54.24-3.71.75a9.115 9.115 0 0 0-3.06 2.23v9.94a.631.631 0 0 0 .62.62Z" fill="#FFF"/><path d="m10.59 18.6.52.34c1.11.9 2.5 1.38 3.92 1.36 1.95.01 3.86-.55 5.49-1.62-1.78-.54-3.63-.82-5.49-.84-1.51-.03-3.02.23-4.44.76Z" fill="#FFF"/></svg>