<svg width="40" height="39" fill="none" xmlns="http://www.w3.org/2000/svg"><path d="M29.91 9.32 28.27 7.7l2-1.1 2.39 2.37-1.11 1.98-1.64-1.63Zm1.35 2.3-1.84-1.81-1.83-1.83-3.92.65 6.93 6.89.66-3.9ZM40 .01 38.62 0 31.6 6.95l.7.69L40 .01ZM19.38 27.1l-2.06-2.05c-.04-.03-.06-.07-.08-.11a.308.308 0 0 1-.03-.13c0-.05.01-.09.03-.13.02-.05.04-.08.08-.11.03-.04.07-.06.11-.08.04-.02.08-.03.13-.03.04 0 .09.01.13.03.04.02.08.04.12.08l2.06 2.04 1.34-1.32-.91-.91a.35.35 0 0 1-.1-.24c0-.09.04-.18.1-.24.07-.06.15-.1.25-.1.08 0 .17.04.24.1l.91.9 1.34-1.33-2.07-2.05c-.03-.03-.06-.06-.07-.11a.277.277 0 0 1-.03-.13c0-.04.01-.09.03-.13.01-.04.04-.08.07-.11.07-.06.15-.1.24-.1s.18.04.25.1l2.07 2.05 1.33-1.33-.91-.91a.345.345 0 0 1-.1-.23c0-.05.01-.09.03-.13.02-.05.04-.08.07-.11.07-.07.15-.1.24-.11.05 0 .1.01.14.03.04.02.08.04.11.08l.91.9 1.34-1.33-2.06-2.05a.4.4 0 0 1-.1-.18.313.313 0 0 1 .02-.19c.03-.07.07-.12.13-.16.05-.03.12-.05.19-.05.09 0 .17.03.24.09l2.07 2.06 1.34-1.33-.91-.9c-.03-.04-.06-.07-.08-.12a.507.507 0 0 1-.02-.13c0-.04.01-.09.02-.13a.444.444 0 0 1 .19-.19c.04-.01.09-.02.13-.02.05 0 .09.01.13.02.05.02.09.05.12.08l.91.9 1.34-1.32-7.4-7.34L7.4 24.31l7.4 7.34 4.58-4.55ZM3.93 33.96l1.14 1.14 4.03-4-1.14-1.14-4.03 4Zm5.9-3.11 4.74 4.71 1.6-1.58L5.05 22.95l-1.59 1.59 4.74 4.7 1.63 1.61ZM5.82 39l1.1-1.1-2.09-2.08h-.01L3.2 34.21v-.01l-2.1-2.07L0 33.22 5.82 39Z" fill="#FFF"/></svg>