<svg width="184" height="154" fill="none" xmlns="http://www.w3.org/2000/svg"><g opacity=".7" fill="#FFF" fill-rule="evenodd"><path d="M141.58 90.59q-5.2 24.69-25.54 39.62-20.35 14.92-45.46 12.47-25.11-2.45-42.18-21.02Q11.33 103.08 11 77.85q-.33-25.23 16.26-44.24Q43.84 14.6 68.88 11.5q25.04-3.11 45.76 11.28 20.72 14.4 26.56 38.94l-1.94.46q-5.66-23.8-25.76-37.75-20.09-13.96-44.38-10.95-24.27 3.01-40.36 21.44Q12.68 53.36 13 77.83q.32 24.46 16.87 42.47 16.56 18.02 40.91 20.39 24.35 2.38 44.07-12.09 19.73-14.48 24.77-38.42l1.96.41Z"/><path d="M173.24 78H54.99v-2h118.25l4.75-4.75 5.75 5.75-5.75 5.75-4.75-4.75Z"/></g></svg>