<svg width="35" height="35" fill="none" xmlns="http://www.w3.org/2000/svg"><path d="M3.387 34.998h28.226c1.863 0 3.387-1.643 3.387-3.651V3.652C35 1.643 33.476 0 31.613 0H3.387C1.524 0 0 1.643 0 3.652v27.695c0 2.008 1.524 3.651 3.387 3.651Zm9.025-30.27c1.345-.062 1.774-.077 5.2-.077 3.425 0 3.855.015 5.2.076 1.342.061 2.26.275 3.061.586.83.323 1.533.754 2.234 1.455a6.175 6.175 0 0 1 1.454 2.234c.313.803.526 1.72.587 3.062.061 1.345.076 1.774.076 5.2 0 3.425-.015 3.854-.076 5.2-.061 1.342-.274 2.259-.587 3.061a6.185 6.185 0 0 1-1.454 2.234 6.187 6.187 0 0 1-2.234 1.454c-.802.312-1.719.526-3.062.587-1.344.061-1.774.075-5.2.075-3.425 0-3.854-.014-5.199-.075-1.343-.061-2.26-.275-3.061-.587a6.186 6.186 0 0 1-2.235-1.454 6.187 6.187 0 0 1-1.454-2.234c-.311-.802-.525-1.72-.586-3.061-.061-1.346-.076-1.775-.076-5.2 0-3.426.015-3.855.076-5.2.06-1.343.275-2.26.586-3.062a6.176 6.176 0 0 1 1.454-2.234 6.188 6.188 0 0 1 2.235-1.455c.801-.311 1.718-.525 3.061-.586Zm10.296 2.27c-1.33-.061-1.728-.074-5.097-.074-3.367 0-3.766.013-5.095.073-1.23.057-1.898.262-2.342.435a3.91 3.91 0 0 0-1.45.943 3.908 3.908 0 0 0-.944 1.45c-.173.445-.378 1.112-.434 2.342-.06 1.33-.074 1.73-.074 5.096 0 3.369.013 3.767.074 5.097.056 1.23.261 1.897.434 2.341.229.59.502 1.01.944 1.45.441.442.861.715 1.45.944.444.173 1.112.379 2.342.435 1.329.06 1.727.073 5.095.073 3.369 0 3.767-.013 5.097-.073 1.23-.056 1.898-.262 2.342-.435a3.907 3.907 0 0 0 1.45-.943 3.89 3.89 0 0 0 .943-1.45c.173-.445.378-1.112.435-2.342.06-1.33.073-1.728.073-5.097 0-3.367-.012-3.766-.073-5.096-.057-1.23-.262-1.897-.435-2.342a3.897 3.897 0 0 0-.943-1.45 3.91 3.91 0 0 0-1.45-.943c-.445-.173-1.113-.378-2.342-.435Zm-5.095 3.79a6.476 6.476 0 1 0 0 12.952 6.476 6.476 0 0 0 0-12.953Zm0 10.68a4.204 4.204 0 1 1 0-8.408 4.204 4.204 0 0 1 0 8.408Zm6.733-9.423a1.514 1.514 0 1 0-.001-3.028 1.514 1.514 0 0 0 0 3.028Z" clip-rule="evenodd" fill="#000" fill-rule="evenodd"/></svg>