<svg width="35" height="34.998" fill="none" xmlns="http://www.w3.org/2000/svg"><path d="M3.387 34.998h28.226c1.863 0 3.387-1.643 3.387-3.652V3.65C35 1.643 33.476 0 31.613 0H3.387C1.524 0 0 1.643 0 3.651v27.695c0 2.009 1.524 3.652 3.387 3.652Zm9.025-30.271c1.345-.061 1.774-.076 5.2-.076 3.425 0 3.855.015 5.2.076 1.342.061 2.26.275 3.061.586.83.323 1.533.754 2.234 1.456a6.17 6.17 0 0 1 1.454 2.233c.313.803.526 1.719.587 3.061.061 1.345.076 1.775.076 5.2 0 3.425-.015 3.855-.076 5.2-.061 1.343-.274 2.259-.587 3.061a6.191 6.191 0 0 1-1.454 2.235 6.184 6.184 0 0 1-2.234 1.454c-.802.311-1.719.525-3.062.587-1.344.06-1.774.075-5.2.075-3.425 0-3.854-.015-5.199-.075-1.343-.062-2.26-.276-3.061-.587a6.184 6.184 0 0 1-2.235-1.454 6.192 6.192 0 0 1-1.454-2.235c-.311-.802-.525-1.718-.586-3.061-.061-1.345-.076-1.774-.076-5.2 0-3.425.015-3.855.076-5.2.06-1.342.275-2.258.586-3.061a6.172 6.172 0 0 1 1.454-2.233 6.186 6.186 0 0 1 2.235-1.456c.801-.311 1.718-.525 3.061-.586Zm10.296 2.27c-1.33-.06-1.728-.073-5.097-.073-3.367 0-3.766.013-5.095.073-1.23.057-1.898.262-2.342.435a3.903 3.903 0 0 0-1.45.943 3.903 3.903 0 0 0-.944 1.45c-.173.445-.378 1.112-.434 2.342-.06 1.33-.074 1.729-.074 5.096 0 3.368.013 3.766.074 5.096.056 1.23.261 1.898.434 2.342.229.589.502 1.009.944 1.45.441.442.861.715 1.45.944.444.173 1.112.379 2.342.434 1.329.06 1.727.073 5.095.073 3.369 0 3.767-.012 5.097-.073 1.23-.055 1.898-.261 2.342-.434a3.902 3.902 0 0 0 1.45-.944c.442-.441.715-.861.943-1.45.173-.444.378-1.111.435-2.342.06-1.33.073-1.728.073-5.096 0-3.368-.012-3.766-.073-5.096-.057-1.23-.262-1.897-.435-2.342a3.891 3.891 0 0 0-.943-1.45 3.902 3.902 0 0 0-1.45-.943c-.445-.173-1.113-.378-2.342-.435Zm-5.095 3.791a6.476 6.476 0 1 0 6.477 6.476c0-3.576-2.9-6.476-6.477-6.476Zm0 10.68a4.204 4.204 0 1 1 0-8.407 4.204 4.204 0 0 1 0 8.407Zm6.733-9.423a1.514 1.514 0 1 0-.002-3.029 1.514 1.514 0 0 0 .002 3.029Z" clip-rule="evenodd" fill="#FFF" fill-opacity=".7" fill-rule="evenodd"/></svg>