<svg width="35" height="35" fill="none" xmlns="http://www.w3.org/2000/svg"><path d="M31.61 34.99H3.38C1.52 34.99 0 33.35 0 31.34V3.65C0 1.64 1.52 0 3.38 0h28.23C33.47 0 35 1.64 35 3.65v27.69c0 2.01-1.53 3.65-3.39 3.65Z" fill="#1A1A1A"/><path d="M9.2 10c-.94 0-1.7.75-1.7 1.68v10.63c0 .93.76 1.69 1.7 1.69h16.59c.94 0 1.71-.76 1.71-1.69V11.68c0-.93-.77-1.68-1.71-1.68H9.2Zm0 .48h16.59c.25 0 .48.07.67.19l-8.12 8.13c-.47.47-1.23.47-1.71 0l-8.1-8.13c.19-.12.42-.19.67-.19Zm-1.02.53 6.24 6.26-6.24 5.71a1.2 1.2 0 0 1-.2-.67V11.68c0-.24.07-.48.2-.67Zm18.63 0c.13.19.2.43.2.67v10.63c0 .24-.07.48-.2.67l-6.24-5.72 6.24-6.25Zm-6.59 6.6 6.24 5.71c-.19.12-.42.19-.67.19H9.2c-.25 0-.48-.07-.67-.19l6.23-5.71 1.52 1.53c.66.66 1.75.66 2.41 0l1.53-1.53Z" fill="#FFF"/><path d="M6.95 11.21q-.05.23-.05.47v10.63q0 .24.05.47.04.22.13.42.08.19.19.35.13.2.3.38.17.16.35.28.18.12.39.21.19.08.4.12.24.06.49.06h16.59q.25 0 .49-.06.21-.04.4-.12.21-.09.39-.21.18-.12.35-.28.17-.18.3-.38.11-.16.19-.35.09-.2.13-.42.05-.23.05-.47V11.68q0-.24-.05-.47-.04-.22-.13-.42-.08-.19-.19-.35-.13-.2-.3-.38-.17-.16-.35-.28-.18-.12-.39-.21-.19-.08-.4-.12-.24-.06-.49-.06H9.2q-.25 0-.49.06-.21.04-.4.12-.21.09-.39.21-.18.12-.35.28-.17.18-.3.38-.11.16-.19.35-.09.2-.13.42Zm19.76-.95c-.27-.17-.58-.26-.92-.26H9.2c-.34 0-.65.09-.92.26-.2.13-.38.3-.51.5-.17.27-.27.58-.27.92v10.63c0 .33.09.64.26.9.13.2.3.37.5.51.27.17.6.28.94.28h16.59c.34 0 .67-.11.94-.28.2-.14.37-.31.5-.51.17-.26.27-.57.27-.9V11.68c0-.34-.11-.65-.28-.92-.13-.2-.31-.37-.51-.5Zm-.9.22H9.18c-.2 0-.38.05-.55.14-.03.01-.07.03-.1.05l.09.09.35.36 5.73 5.74.5.5 1.43 1.44c.48.47 1.24.47 1.71 0l1.44-1.45.51-.5 5.72-5.73.36-.36.09-.09a.467.467 0 0 0-.1-.05c-.17-.09-.35-.14-.55-.14Zm-16.03.6h15.43l-7.29 7.29q-.1.1-.23.15-.09.04-.2.04-.11 0-.21-.04-.12-.05-.22-.15l-7.28-7.29Zm10.53 6.6-.09-.07-.08.08-1.45 1.45c-.66.66-1.75.66-2.41 0l-1.44-1.45-.08-.08-.08.08L9 22.88l-.38.35-.09.09c.03.02.07.04.1.06.17.08.37.13.57.13h16.59c.2 0 .4-.05.57-.13.03-.02.07-.04.1-.06l-.09-.09-.38-.35-5.68-5.2Zm-5.57.76 1.12 1.12q.16.17.35.29.19.13.41.22.19.07.39.11.23.05.48.05.24 0 .47-.05.2-.04.39-.11.22-.09.41-.21.19-.13.36-.3l1.12-1.12 4.89 4.47H9.86l4.88-4.47Zm12.27 3.9V11.66c-.01-.2-.05-.38-.14-.55-.02-.03-.04-.06-.06-.1l-.09.09-.35.36-5.38 5.37-.34.35-.08.08.08.08.36.32 5.35 4.9.36.33.09.09c.02-.04.04-.07.06-.1.08-.16.13-.34.14-.54Zm-.6-10.08v9.53l-4.98-4.55 4.98-4.98ZM8.63 22.56l5.34-4.89.36-.33.09-.07-.08-.08-.35-.35-5.81-5.83a.88.88 0 0 1-.06.1c-.08.17-.13.36-.14.55v10.68c.01.2.06.38.14.54.02.03.04.06.06.1l.09-.09.36-.33Zm4.92-5.31L8.58 21.8v-9.53l4.97 4.98Z" fill="#FFF" fill-rule="evenodd"/></svg>