<svg width="65" height="65" fill="none" xmlns="http://www.w3.org/2000/svg"><path d="M58.71 65H6.29C2.831 65 0 61.948 0 58.218V6.782C0 3.052 2.831 0 6.29 0h52.42C62.17 0 65 3.052 65 6.782v51.435C65 61.949 62.17 65 58.71 65Zm-7.001-41.673h-.29l.29-.04a1.364 1.364 0 0 0-.371-.773L39.248 10.43a1.319 1.319 0 0 0-.22-.18l-.06-.035a2.071 2.071 0 0 0-.19-.105l-.105-.029a.817.817 0 0 0-.17-.052A1.514 1.514 0 0 0 38.22 10H18.815a1.452 1.452 0 0 0-1.452 1.452v15.616a1.453 1.453 0 0 0 2.905 0V12.922h16.5v10.539a1.456 1.456 0 0 0 1.446 1.452l10.608.058v28.124H20.268v-2.248a1.452 1.452 0 1 0-2.905 0v3.7A1.453 1.453 0 0 0 18.815 56h31.46a1.455 1.455 0 0 0 1.452-1.452V23.525a1.12 1.12 0 0 0-.018-.198Zm-12.037-1.313V14.98l7.076 7.07-7.076-.035Zm-25.22 8.25h29.333a1.451 1.451 0 0 1 1.452 1.452V46.2a1.452 1.452 0 0 1-1.452 1.453H14.452A1.452 1.452 0 0 1 13 46.199V31.716a1.452 1.452 0 0 1 1.452-1.452Zm17.405 11.74a3.67 3.67 0 0 0 .506-1.324 10.15 10.15 0 0 0 .146-1.836 8.98 8.98 0 0 0-.146-1.8 3.155 3.155 0 0 0-.546-1.227 2.145 2.145 0 0 0-1.104-.76 5.752 5.752 0 0 0-1.742-.227h-2.83v8.296h2.812c.61.018 1.22-.07 1.8-.261a2.22 2.22 0 0 0 1.104-.86ZM23.4 40.607a2.958 2.958 0 0 0 1.029-.623c.54-.62.813-1.428.76-2.248 0-1.923-.998-2.905-2.98-2.905h-3.08v8.296h1.849v-2.359h1.231c.404.029.81-.026 1.191-.161Zm12.189-4.15h3.526V34.83H33.74v8.296h1.848v-2.858h2.904v-1.633h-2.904v-2.178Zm-13.392-.023h-1.22v2.725h1.22c.756 0 1.127-.465 1.127-1.423a1.492 1.492 0 0 0-.255-1.005 1.112 1.112 0 0 0-.872-.297Zm7.686.146a.824.824 0 0 1 .476.406c.116.22.188.458.215.703.034.356.05.712.047 1.07v1.045a2.163 2.163 0 0 1-.424 1.272 1.591 1.591 0 0 1-1.226.419h-.982v-5.037h.982c.31-.011.617.03.912.122Z" clip-rule="evenodd" fill="#212121" fill-rule="evenodd"/></svg>