<svg width="35" height="35" fill="none" xmlns="http://www.w3.org/2000/svg"><path d="M31.61 34.99H3.38C1.52 34.99 0 33.35 0 31.34V3.65C0 1.64 1.52 0 3.38 0h28.23C33.47 0 35 1.64 35 3.65v27.69c0 2.01-1.53 3.65-3.39 3.65Z" fill="#1A1A1A"/><path d="M12.13 8.02a.482.482 0 0 0-.32-.13c-.12 0-.23.05-.31.13L9.81 9.71c-.76.76-1.08 1.85-.84 2.9.47 2 1.71 5.23 4.95 8.46 3.23 3.24 6.46 4.48 8.46 4.95 1.05.24 2.14-.08 2.9-.84l1.43-1.43c.09-.09.18-.17.26-.25.08-.09.13-.2.13-.32s-.05-.23-.13-.32l-3.21-3.2a.435.435 0 0 0-.63 0l-2.01 2c-.43.44-1.11.52-1.64.21 0-.01 0-.01-.01-.01-.75-.48-2.09-1.43-3.5-2.84-1.41-1.41-2.36-2.75-2.83-3.5l-.01-.01c-.32-.53-.23-1.2.2-1.64l2.01-2.01c.17-.17.17-.46 0-.63l-3.21-3.21Zm2.82 3.53-3.14-3.14-1.65 1.65c-.64.64-.9 1.56-.71 2.44.46 1.92 1.67 5.07 4.82 8.22 3.16 3.16 6.3 4.36 8.23 4.82.87.19 1.79-.07 2.43-.71l1.43-1.43.22-.22-3.14-3.13-1.97 1.97c-.59.59-1.52.71-2.24.28l-.01-.01c-.01 0-.01-.01-.02-.01-.77-.5-2.14-1.46-3.58-2.9a21.653 21.653 0 0 1-2.9-3.59h-.01l-.01-.03c-.43-.72-.32-1.64.28-2.24l1.97-1.97Zm4.28 10.75s0-.01-.01-.01l.01.01Zm2.96 4.6h-.01c-2.1-.5-5.5-1.8-8.89-5.19-3.4-3.4-4.7-6.8-5.2-8.9a4.04 4.04 0 0 1 1.08-3.73l1.69-1.69a1.356 1.356 0 0 1 1.9 0l3.21 3.21c.52.52.52 1.37 0 1.9l-2 2-.01.01c-.14.14-.17.36-.06.53a20.29 20.29 0 0 0 6.05 6.06c.18.1.4.07.54-.07l2.01-2.01a1.34 1.34 0 0 1 1.89 0l3.21 3.21c.25.25.4.6.4.95 0 .36-.15.7-.4.95l-1.69 1.69a4.03 4.03 0 0 1-3.72 1.08Zm4.07-.73a4.527 4.527 0 0 1-4.17 1.22c-.01 0-.02-.01-.03-.01-2.17-.51-5.66-1.85-9.13-5.32-3.47-3.47-4.8-6.96-5.32-9.13v-.01c-.34-1.52.11-3.1 1.21-4.2l1.69-1.68c.34-.35.81-.54 1.3-.54s.96.19 1.3.53l3.21 3.21c.72.72.72 1.89 0 2.61-.58.58-1.42 1.43-1.97 1.97v.01c.46.7 1.32 1.93 2.61 3.21 1.27 1.27 2.49 2.14 3.21 2.61l1.97-1.98c.72-.72 1.89-.72 2.61 0l3.21 3.21c.34.34.54.81.54 1.3s-.2.96-.54 1.3c-.47.47-1.12 1.12-1.7 1.69ZM14.32 14.86Zm0 0c0-.01.01-.01.01-.02.01 0 .01-.01.02-.01l-.03.03Zm7.8 12.53h-.01.01Z" fill="#FFF" fill-rule="evenodd"/><path d="M12.76 7.39a1.356 1.356 0 0 0-1.9 0L9.17 9.08a4.04 4.04 0 0 0-1.08 3.73c.5 2.1 1.8 5.5 5.2 8.9 3.39 3.39 6.79 4.69 8.89 5.19h.01c1.34.3 2.75-.11 3.72-1.08l1.69-1.69c.25-.25.4-.59.4-.95 0-.35-.15-.7-.4-.95l-3.21-3.21a1.34 1.34 0 0 0-1.89 0l-2.01 2.01c-.14.14-.36.17-.54.07-.72-.46-2-1.36-3.35-2.71-1.34-1.35-2.25-2.63-2.7-3.35a.424.424 0 0 1 .06-.53c0-.01.01-.01.01-.01l2-2c.52-.53.52-1.38 0-1.9l-3.21-3.21Zm-.63.63 3.21 3.21c.17.17.17.46 0 .63l-2.01 2.01c-.43.44-.52 1.11-.2 1.64l.01.01c.47.75 1.42 2.09 2.83 3.5 1.41 1.41 2.75 2.36 3.5 2.84.01 0 .01 0 .01.01.53.31 1.21.23 1.64-.21l2.01-2c.17-.18.46-.18.63 0l3.21 3.2c.08.09.13.2.13.32s-.05.23-.13.32c-.47.46-1.12 1.11-1.69 1.68-.76.76-1.85 1.08-2.9.84-2-.47-5.23-1.71-8.46-4.95-3.24-3.23-4.48-6.46-4.95-8.46-.24-1.05.08-2.14.84-2.9l1.69-1.69c.08-.08.19-.13.31-.13s.23.05.32.13Z" fill="#FFF" fill-rule="evenodd"/></svg>