<svg width="35" height="35" fill="none" xmlns="http://www.w3.org/2000/svg"><path d="M3.388 34.998h28.224c1.864 0 3.388-1.643 3.388-3.652V3.65C35 1.642 33.476 0 31.612 0H3.388C1.524-.001 0 1.642 0 3.65v27.695c0 2.01 1.524 3.652 3.388 3.652Zm1.105-18.644 23.782-9.268a1.224 1.224 0 0 1 1.643 1.39l-4.06 19.414a1.28 1.28 0 0 1-2.01.769l-6.131-4.5-3.124 3.19a1.038 1.038 0 0 1-1.732-.414l-2.256-7.157-6.043-1.784c-.793-.234-.84-1.34-.069-1.64Zm9.754 4.81 11.046-9.77c.266-.234-.042-.646-.343-.46l-13.044 8.09a.594.594 0 0 0-.255.68l1.751 5.64c.038.118.21.102.223-.022l.426-3.78a.588.588 0 0 1 .196-.379Z" clip-rule="evenodd" fill="#000" fill-rule="evenodd"/></svg>