<svg width="35" height="35" fill="none" xmlns="http://www.w3.org/2000/svg"><path d="M3.388 35h28.224C33.476 35 35 33.356 35 31.348V3.652C35 1.644 33.476 0 31.612 0H3.388C1.524 0 0 1.644 0 3.652v27.696C0 33.356 1.524 35 3.388 35Zm1.105-18.645 23.782-9.267a1.224 1.224 0 0 1 1.643 1.39l-4.06 19.413a1.28 1.28 0 0 1-2.01.77l-6.131-4.5-3.124 3.19a1.038 1.038 0 0 1-1.732-.415l-2.256-7.157-6.043-1.784c-.793-.233-.84-1.34-.069-1.64Zm9.754 4.81 11.046-9.768c.266-.236-.042-.648-.343-.462l-13.044 8.091a.593.593 0 0 0-.255.68l1.751 5.639c.038.119.21.102.223-.022l.426-3.78a.585.585 0 0 1 .196-.378Z" clip-rule="evenodd" fill="#FFF" fill-opacity=".7" fill-rule="evenodd"/></svg>